<svg width="20" height="21" viewBox="0 0 20 21" fill="none" xmlns="http://www.w3.org/2000/svg">
<path d="M3.33337 10.1697C2.91916 10.1697 2.58337 10.5055 2.58337 10.9197C2.58337 11.3339 2.91916 11.6697 3.33337 11.6697L3.33337 10.1697ZM16.6667 11.6697C17.0809 11.6697 17.4167 11.3339 17.4167 10.9197C17.4167 10.5055 17.0809 10.1697 16.6667 10.1697V11.6697ZM13.8613 6.22036C13.5671 5.92878 13.0923 5.9309 12.8007 6.22509C12.5091 6.51929 12.5112 6.99416 12.8054 7.28574L13.8613 6.22036ZM14.8025 8.20914L14.2746 8.74183L14.8025 8.20914ZM14.8025 13.6303L15.3305 14.163L14.8025 13.6303ZM12.8054 14.5537C12.5112 14.8453 12.5091 15.3201 12.8007 15.6143C13.0923 15.9085 13.5671 15.9107 13.8613 15.6191L12.8054 14.5537ZM16.6501 10.6586L17.3941 10.5638L17.3941 10.5638L16.6501 10.6586ZM16.6501 11.1808L17.3941 11.2757V11.2757L16.6501 11.1808ZM3.33337 11.6697L16.6667 11.6697V10.1697L3.33337 10.1697L3.33337 11.6697ZM12.8054 7.28574L14.2746 8.74183L15.3305 7.67645L13.8613 6.22036L12.8054 7.28574ZM14.2746 13.0976L12.8054 14.5537L13.8613 15.6191L15.3305 14.163L14.2746 13.0976ZM14.2746 8.74183C14.8729 9.33485 15.2758 9.7358 15.5471 10.0736C15.8088 10.3995 15.8857 10.5931 15.9062 10.7534L17.3941 10.5638C17.3243 10.0164 17.0632 9.5659 16.7166 9.13433C16.3795 8.71459 15.9038 8.24464 15.3305 7.67645L14.2746 8.74183ZM15.3305 14.163C15.9038 13.5948 16.3795 13.1248 16.7166 12.7051C17.0632 12.2735 17.3243 11.823 17.3941 11.2757L15.9062 11.086C15.8857 11.2463 15.8088 11.4399 15.5471 11.7659C15.2758 12.1036 14.8729 12.5046 14.2746 13.0976L15.3305 14.163ZM15.9062 10.7534C15.9202 10.8639 15.9202 10.9756 15.9062 11.086L17.3941 11.2757C17.4242 11.0393 17.4242 10.8001 17.3941 10.5638L15.9062 10.7534Z" fill="#666666"/>
</svg>
